<svg xmlns="http://www.w3.org/2000/svg" width="795.566" height="119.481" viewBox="0 0 795.566 119.481">
  <path id="Logo" d="M212.99-3210.518c-13.068-.026-17.892-9.146-17.892-9.146l-33.525-63.468-18.623,70.657H108l28.852-100.872s3.913-14.546,18.32-16.4,22.347,11.437,22.347,11.437l36.307,67.179,37.357-67.179s6.883-13.847,22.042-11.393a21.339,21.339,0,0,1,17.7,16.361L319.8-3212.476H283.832l-18.61-70.657-33.567,63.468s-5.58,9.147-18.609,9.146Zm265.816-1.848v-72.175h35.151v42.432h43.407s33.178-1.125,32.719-27.755-32.719-27.443-32.719-27.443H367.794v12.766h92.818l-20.476,27.278H367.794v15.154h98.1l-21.549,29.743H332.283v-115.675h229.3s62.221,3.1,63.562,56.115-59.238,59.559-59.238,59.559Zm291.7-.3v-115.37H903.566L881.6-3297.712H806.83v14.182H897.6l-20.566,26.391H806.83v15.166h96.736l-21.962,29.3Zm-145.784,0v-27.247s8.4-11.258,8.381-31.892-8.381-31.462-8.381-31.462v-24.769H757.783l-21.962,30.328H661.047v14.182h90.771l-20.565,26.391H661.047v15.166h96.736l-21.962,29.3Z" transform="translate(-108 3330)" fill="#00d296"/>
</svg>
